<?xml version="1.0" encoding="UTF-8"?>
<!DOCTYPE svg PUBLIC "-//W3C//DTD SVG 1.1//EN" "http://www.w3.org/Graphics/SVG/1.1/DTD/svg11.dtd">
<!-- Creator: CorelDRAW 2018 (64-Bit) -->
<svg xmlns="http://www.w3.org/2000/svg" xml:space="preserve" width="74px" height="13px" version="1.1" 
viewBox="0 0 74 13"
 xmlns:xlink="http://www.w3.org/1999/xlink">

   <path fill="#499FDD" d="M65.616 3.911c-0.018,-0.232 -0.101,-0.437 -0.226,-0.56 -0.346,-0.34 -1.002,-0.238 -1.579,-0.238l0 7.116 1.864 0 0 -3.19c0,-2.548 2.27,-2.996 2.27,-1.165l0 4.355c2.216,0 1.93,0.175 1.922,-0.674l-0.002 -2.702c-0.002,-0.982 0.538,-2.083 1.515,-2.083 1.021,0 0.757,1.687 0.757,2.822 0,2.497 -0.261,2.637 1.863,2.637l0 -4.907c0,-2.226 -1.962,-2.949 -3.629,-1.984 -0.2,0.116 -0.309,0.211 -0.462,0.372 -0.126,0.133 -0.291,0.368 -0.392,0.446 -0.312,-1.233 -2.383,-1.742 -3.509,-0.568 -0.147,0.153 -0.188,0.265 -0.392,0.323z"/>
   <path fill="#273B7C" d="M3.26 8.512l-1.397 0 0 -2.086c0,-0.739 0.746,-0.552 1.688,-0.552 1.384,0 1.704,2.638 -0.291,2.638zm0.117 -4.233l-1.514 0c0,-2.246 -0.211,-2.332 1.164,-2.332 1.881,0 1.477,2.332 0.35,2.332zm-3.377 -2.7l0 8.589 3.668 0c0.773,0 1.529,-0.366 1.962,-0.754 1.003,-0.896 1.176,-2.569 0.484,-3.602 -0.201,-0.301 -0.573,-0.696 -0.933,-0.797 0.21,-0.33 0.446,-0.413 0.667,-0.831 0.621,-1.174 0.372,-2.581 -0.758,-3.366 -0.903,-0.628 -2.539,-0.527 -3.751,-0.527 -0.845,0 -1.339,0.402 -1.339,1.288z"/>
   <path fill="#273B7C" d="M42.793 8.266c-1.807,0 -1.94,-3.558 -0.058,-3.558 1.325,0 1.503,1.297 1.317,2.431 -0.108,0.652 -0.527,1.127 -1.259,1.127zm1.281 1.289c0,1.604 -1.302,1.773 -2.459,1.487 -0.671,-0.167 -0.966,-0.519 -1.347,0.392 -0.125,0.302 -0.203,0.608 -0.328,0.881 2.386,1.331 6.114,0.909 6.114,-2.944l0 -6.319c-0.541,0 -1.146,-0.084 -1.484,0.155 -0.234,0.165 -0.141,0.197 -0.321,0.335 -0.536,-0.377 -0.957,-0.674 -1.805,-0.674 -3.538,0 -4.071,5.372 -1.349,6.881 0.364,0.201 1.03,0.389 1.547,0.326 0.844,-0.102 0.858,-0.2 1.432,-0.52z"/>
   <path fill="#273A7C" d="M22.415 10.229l1.98 0 0 -2.944c0.835,0 0.518,0.157 1.315,1.559 0.123,0.218 0.18,0.387 0.296,0.608 0.555,1.055 1.16,0.777 2.697,0.777 -0.051,-0.23 -0.399,-0.77 -0.521,-0.984l-1.575 -2.942c0.099,-0.155 0.186,-0.212 0.292,-0.367l1.804 -2.884 -2.212 0 -0.792 1.313c-0.707,1.112 -0.459,1.079 -1.304,1.079l0 -4.11c0,-1.201 -0.948,-1.043 -1.98,-1.043l0 9.938z"/>
   <path fill="#273A7C" d="M34.235 3.849c-0.162,-0.355 -0.217,-0.797 -1.048,-0.797l-0.874 0 0 7.177 1.98 0 0 -3.435c0,-1.1 0.62,-1.963 1.688,-1.963 0.591,0 0.713,0.394 0.763,0.975 0.105,1.247 -0.02,2.721 0.052,3.626 0.076,0.947 1.101,0.797 1.805,0.797 0.29,0 0.175,-0.878 0.175,-1.472l-0.058 -3.252c0.004,-0.601 -0.074,-0.957 -0.271,-1.37 -0.198,-0.416 -0.37,-0.639 -0.742,-0.875 -0.817,-0.517 -2.198,-0.488 -3.04,0.184 -0.182,0.145 -0.25,0.278 -0.43,0.405z"/>
   <path fill="#273B7C" d="M17.99 4.708c0.515,0 0.974,0.002 1.383,0.507 0.776,0.958 0.608,3.358 -1.208,3.358 -0.97,0 -1.531,-0.807 -1.594,-1.872 -0.058,-0.97 0.54,-1.993 1.419,-1.993zm-3.376 1.902c0,3.543 4.058,4.858 6.069,2.715 0.751,-0.799 0.973,-1.386 1.086,-2.604 0.078,-0.844 -0.384,-2.038 -0.939,-2.674 -0.198,-0.227 -0.727,-0.635 -1.017,-0.769 -2.483,-1.142 -5.199,0.519 -5.199,3.332z"/>
   <path fill="#499FDC" d="M59.386 4.708l0.408 0c0.771,0 1.397,0.873 1.397,1.718l0 0.429c0,1.994 -2.981,2.634 -3.247,-0.14 -0.043,-0.444 0.182,-1.093 0.36,-1.369 0.192,-0.297 0.639,-0.638 1.082,-0.638zm-3.376 1.902c0,3.665 4.115,4.775 6.07,2.715 1.738,-1.83 1.273,-4.956 -0.841,-6.017 -2.272,-1.14 -5.229,0.288 -5.229,3.302z"/>
   <path fill="#273B7C" d="M8.966 6.61c0,-0.944 0.604,-1.902 1.456,-1.902l0.29 0c1.991,0 2.107,3.865 -0.116,3.865 -1.018,0 -1.63,-0.89 -1.63,-1.963zm-1.921 0c0,3.708 4.125,4.741 6.041,2.747 1.435,-1.493 1.41,-3.98 0.075,-5.388 -1.017,-1.071 -2.849,-1.356 -4.158,-0.694 -1.165,0.591 -1.958,1.775 -1.958,3.335z"/>
   <path fill="#499FDD" d="M49.314 6.671c0,2.656 2.506,4.325 4.812,3.537 0.685,-0.234 1.418,-0.656 1.767,-1.205 -0.258,-0.407 -0.535,-0.908 -0.757,-1.35 -0.187,0.052 -0.486,0.408 -0.989,0.676 -1.245,0.662 -2.912,0.158 -2.912,-1.78 0,-1.521 1.426,-2.202 2.341,-1.792 0.446,0.201 0.195,0.81 0.978,0.81l0.99 0c0,-0.928 0.095,-1.635 -0.701,-2.145 -2.079,-1.333 -5.529,0.002 -5.529,3.249z"/>
   <path fill="#273A7D" d="M29.285 10.229l1.922 0 0 -6.257c0,-0.642 -0.44,-0.92 -1.048,-0.92l-0.874 0 0 7.177z"/>
   <path fill="#273B7C" d="M29.053 1.027c0,0.535 0.082,1.059 0.69,1.297 1.637,0.643 2.265,-2.113 0.51,-2.318 -0.617,-0.072 -1.2,0.54 -1.2,1.021z"/>
   <path fill="#499FDD" d="M46.752 9.125c0,1.042 1.235,1.532 1.932,0.87 0.672,-0.639 0.338,-2.097 -0.767,-2.097 -0.631,0 -1.165,0.582 -1.165,1.227z"/>
 
</svg>
